#!OML:ASF E:/inclinewalkrobotboard/Project1/Captureday1/Session1/subject1.ASF
:FULLY-SPECIFIED
:DEGREES
313
root 0 0 0 -3.5687180141541006 2.0782999965951063 2.1846415144434417
lowerback 11.83289425534609 -0.7543806694511226 -3.1199468049259673
upperback 1.2822123978843631 -1.2151541167105948 1.1459046901937742
thorax -5.263868707207017 -0.5072160061851918 3.0639238446768826
lowerneck -17.63819601296214 -2.909104026122833 -2.3594603371025573
upperneck 17.734541425363602 -3.2274679190311457 -0.3582853512813786
head 8.319543552162102 -1.7228579885711481 -0.10386328733453087
rclavicle 3.807545148609479E-15 2.2763186016443886E-15
rhumerus -50.33433275630718 -18.94185307036289 -74.60545563114819
rradius 23.350740695578388
rwrist -2.138124640205472
rhand -21.324479539685147 27.499057222508256
rfingers 7.125020000000054
rthumb 5.031641176046598 -2.736081810692662
lclavicle 3.7025829912913955E-16 -7.103952053195009E-15
lhumerus -35.4049694570435 -1.7323272620360193 84.66674145195219
lradius 29.058655790168068
lwrist 9.78049270597965
lhand -31.009301926948446 24.806628228823442
lfingers 7.125020000000039
lthumb -4.244120595795362 55.3731765353681
rfemur -28.136654349746777 27.630300884518476 41.371220239579486
rtibia 23.624890189410596
rfoot -8.713852301485547 -12.643138852205862
rtoes -3.1795562457675786
lfemur -8.779302112459838 1.7844564252548771 -19.407404783460276
ltibia 55.97788384313802
lfoot 3.5041843052854915 -13.366508780534804
ltoes -15.6004134022806
314
root 0 0 0 -3.777534940990897 1.0747577625915028 1.7911342990494443
lowerback 11.953807826238556 -0.5970742330930001 -2.632824673265329
upperback 1.3293497305485058 -0.9567923032580194 1.1984551162781474
thorax -5.298863973331926 -0.3825722715881028 2.8104907614465238
lowerneck -17.61682967884586 -2.9476089894244266 -2.2792452530853833
upperneck 17.793362036163508 -3.310601654443584 -0.3289225227789041
head 8.332399155690583 -1.7552726402222159 -0.11670073803589887
rclavicle 3.721602279464827E-15 2.2431091167883868E-15
rhumerus -50.121810928110726 -18.913150482979677 -74.98622311550159
rradius 23.357383264794713
rwrist -2.371671557270645
rhand -21.296614485976512 27.430813971907405
rfingers 7.125020000000054
rthumb 5.058548629503555 -2.8043162923686733
lclavicle 2.0906975106943083E-16 -6.967363635636189E-15
lhumerus -35.637270203044736 -1.7714763054200482 84.77948342067396
lradius 29.08393114402263
lwrist 10.056934489179639
lhand -30.820835728115078 24.882487740272026
lfingers 7.125020000000039
lthumb -4.065844618079748 55.407177510211426
rfemur -27.827241911381776 27.346202368307473 41.248356369217205
rtibia 23.666060609622107
rfoot -8.850211421482113 -12.368508620795948
rtoes -3.001896986609559
lfemur -9.579037818976886 2.2471924770261165 -17.98984894445475
ltibia 59.44232253301908
lfoot 4.5933648940991745 -14.89242297616796
ltoes -15.72206337248444
315
root 0 0 0 -4.1784806857150585 0.01547582570584538 1.1833545172050446
lowerback 12.167472344615142 -0.36866642680542117 -1.8962867249270199
upperback 1.422816159232143 -0.5687193714984202 1.2704471100495478
thorax -5.3287404084658405 -0.194502306467649 2.4127027445113103
lowerneck -17.616512316887402 -3.011587378381824 -2.1872118033517007
upperneck 17.855978117025696 -3.435571909259218 -0.2620529482071827
head 8.354562756625901 -1.8046993328076308 -0.12807561209637175
rclavicle 3.356715246777407E-15 1.967794843233168E-15
rhumerus -49.87769619426089 -18.857727075006892 -75.1066223168189
rradius 23.43192226176612
rwrist -2.5412297044134
rhand -21.318665968817594 27.419416311450433
rfingers 7.125020000000054
rthumb 5.037754731338303 -2.8215083695197887
lclavicle -1.3963772245019123E-16 -6.976464680794274E-15
lhumerus -35.81201954800608 -1.7686884240126357 84.8821542753398
lradius 29.095233869279678
lwrist 10.267633325481704
lhand -30.687069309250987 24.936356645957886
lfingers 7.125020000000039
lthumb -3.940014901502664 55.4312675958189
rfemur -27.560508430901777 27.103359038258617 41.09720997208056
rtibia 23.74235812300922
rfoot -8.893616195724691 -12.226625539547994
rtoes -2.7955082495250743
lfemur -10.275590763112028 2.218832315609804 -17.265239807361663
ltibia 60.534440472392674
lfoot 4.946868150458705 -15.344358553482184
ltoes -15.692880974924941
316
root 0 0 0 -4.870085862429718 -0.9974133137046728 0.27562364969688247
lowerback 12.510368416734611 -0.04509044785379035 -0.8170507995915881
upperback 1.5819250671339677 -0.003335884207709361 1.365094402627498
thorax -5.3459218336110155 0.07998573027121136 1.8113180607179356
lowerneck -17.653405640346225 -3.112835366218304 -2.0870243049180117
upperneck 17.93495998599184 -3.6206914696598314 -0.1378790227612816
head 8.398205197327382 -1.8783579586814163 -0.13589992992292865
rclavicle 3.092165659110616E-15 1.6701143259186578E-15
rhumerus -49.57595993753692 -18.763188976188477 -75.10616910732989
rradius 23.55824068559985
rwrist -2.648454053123171
rhand -21.38695520597424 27.457760907737445
rfingers 7.125020000000054
rthumb 4.973257016871592 -2.7922745618416194
lclavicle -5.546745283379511E-16 -7.046954568765654E-15
lhumerus -36.069162287211434 -1.655752596209238 84.98896336902524
lradius 29.01727680541566
lwrist 10.261279575223078
lhand -30.652293631526693 24.878075758854855
lfingers 7.125020000000039
lthumb -3.9074979898270676 55.36464649187369
rfemur -27.23361430044862 26.71673331184894 40.81316274912973
rtibia 23.900735619389522
rfoot -8.959532454704064 -12.098653763512475
rtoes -2.654425576430871
lfemur -11.188244826085906 2.05279838372015 -16.825788699542702
ltibia 60.608366846415166
lfoot 5.075108514873779 -15.3183992045923
ltoes -15.61539376631024
